<svg width="46" height="46" viewBox="0 0 46 46" fill="none" xmlns="http://www.w3.org/2000/svg">
<path d="M0 31.1613H13.7215L8.16129 44.3661V46H13.8569L19.7924 31.1613H20.0323V43.0323H25.9677V31.1613H26.2076L32.1431 46H37.8387V44.3661L32.2785 31.1613H46V0H0V31.1613ZM12.8527 44.5161H9.7082L15.3314 31.1613H18.1944L12.8527 44.5161ZM24.4839 41.5484H21.5161V31.1613H24.4839V41.5484ZM36.2918 44.5161H33.1473L27.8056 31.1613H30.6686L36.2918 44.5161ZM1.48387 29.6774V26.7097H44.5161V29.6774H1.48387ZM44.5161 1.48387V25.2258H1.48387V1.48387H44.5161ZM26.7097 15.5806C26.7097 20.0804 30.3712 23.7419 34.871 23.7419C39.3708 23.7419 43.0323 20.0804 43.0323 15.5806C43.0323 11.0809 39.3708 7.41935 34.871 7.41935C30.3712 7.41935 26.7097 11.0809 26.7097 15.5806ZM28.2374 16.3226H34.129V22.2142C31.0396 21.8708 28.5808 19.4128 28.2374 16.3226ZM41.5484 15.5806C41.5484 19.0121 38.9465 21.844 35.6129 22.2142V8.94706C38.9465 9.3173 41.5484 12.1492 41.5484 15.5806ZM34.129 8.94706V14.8387H28.2374C28.5808 11.7485 31.0396 9.2905 34.129 8.94706ZM4.45161 10.8925V17.8065H16.3226V10.8925L17.3427 11.7083L18.2694 10.5498L10.3871 4.24403L2.50403 10.5498L3.43073 11.7083L4.45161 10.8925ZM11.871 16.3226H8.90323V13.3548H11.871V16.3226ZM14.8387 9.7053V16.3226H13.3548V11.871H7.41935V16.3226H5.93548V9.7053L10.3871 6.14379L14.8387 9.7053ZM2.96774 22.2581H4.45161V23.7419H2.96774V22.2581ZM5.93548 22.2581H17.8065V23.7419H5.93548V22.2581ZM2.96774 19.2903H17.8065V20.7742H2.96774V19.2903ZM20.7742 9.64516H19.2903V2.96774H29.6774V7.41935H28.1935V4.45161H26.7097V9.64516H25.2258V4.45161H23.7419V11.129H22.2581V4.45161H20.7742V9.64516Z" fill="url(#paint0_linear)"/>
<defs>
<linearGradient id="paint0_linear" x1="23" y1="46" x2="23" y2="0" gradientUnits="userSpaceOnUse">
<stop stop-color="#75E6DA"/>
<stop offset="1" stop-color="#EBFDFF"/>
</linearGradient>
</defs>
</svg>
