<svg width="48" height="48" viewBox="0 0 48 48" fill="none" xmlns="http://www.w3.org/2000/svg">
<path d="M12.9578 4.26997L12.2204 2.93561C11.7629 3.18876 11.3054 3.46097 10.8655 3.74462L11.6913 5.02637C12.103 4.76178 12.5292 4.50711 12.9578 4.26997Z" fill="#147E93"/>
<path d="M10.4767 5.86586L9.56776 4.6413C9.1461 4.95468 8.72902 5.28484 8.33252 5.62339L9.32376 6.78467C9.69281 6.46823 10.0817 6.15942 10.4767 5.86586Z" fill="#147E93"/>
<path d="M18.4448 2.13497L18.0887 0.651917C17.5794 0.774678 17.067 0.916502 16.5637 1.07281L17.0212 2.52765C17.4902 2.38431 17.969 2.25239 18.4448 2.13497Z" fill="#147E93"/>
<path d="M15.6313 3.01944L15.0762 1.6012C14.5897 1.7903 14.1017 1.99922 13.6274 2.22187L14.274 3.60275C14.7163 3.39153 15.1738 3.19634 15.6313 3.01944Z" fill="#147E93"/>
<path d="M8.22808 7.77744L7.16745 6.68555C6.7862 7.05307 6.42097 7.43584 6.07251 7.82167L7.20329 8.84493C7.53523 8.47741 7.87683 8.12158 8.22808 7.77744Z" fill="#147E93"/>
<path d="M3.25346 15.0501L1.84818 14.4584C1.6446 14.9426 1.45473 15.439 1.28394 15.9346L2.72505 16.4318C2.88518 15.9674 3.06284 15.5031 3.25346 15.0501Z" fill="#147E93"/>
<path d="M1.71409 20.7398L0.202059 20.5408C0.134197 21.0586 0.0823478 21.5877 0.0495605 22.1123L1.57455 22.2099C1.60124 21.7158 1.6508 21.2217 1.71409 20.7398Z" fill="#147E93"/>
<path d="M2.29126 17.8424L0.819645 17.4428C0.683158 17.9476 0.561159 18.4653 0.458984 18.9808L1.95347 19.2789C2.05031 18.7978 2.16392 18.3143 2.29126 17.8424Z" fill="#147E93"/>
<path d="M1.52499 23.6831L0 23.6877C0 24.2146 0.0198249 24.7453 0.0548997 25.2645L1.57989 25.1608C1.54329 24.6723 1.52499 24.1797 1.52499 23.6831Z" fill="#147E93"/>
<path d="M6.25242 9.97342L5.05225 9.03021C4.72895 9.4412 4.41404 9.86896 4.11743 10.3028L5.37631 11.1644C5.65386 10.7588 5.94742 10.3577 6.25242 9.97342Z" fill="#147E93"/>
<path d="M21.3543 1.64166L21.2018 0.125061C20.6788 0.177673 20.1527 0.25011 19.6372 0.337797L19.8942 1.84144C20.373 1.75909 20.8648 1.69199 21.3543 1.64166Z" fill="#147E93"/>
<path d="M4.58266 12.4103L3.26888 11.6364C3.00124 12.0939 2.74657 12.5567 2.51172 13.0226L3.8743 13.7089C4.09644 13.2666 4.33256 12.8338 4.58266 12.4103Z" fill="#147E93"/>
<path d="M45.2922 19.1424L46.7859 18.8374C46.68 18.3242 46.5572 17.8088 46.4154 17.3025L44.946 17.7112C45.0772 18.1801 45.1939 18.6635 45.2922 19.1424Z" fill="#147E93"/>
<path d="M43.3403 13.5899L44.6991 12.8976C44.4627 12.4332 44.205 11.9689 43.9366 11.5167L42.6235 12.2998C42.879 12.7222 43.1192 13.1561 43.3403 13.5899Z" fill="#147E93"/>
<path d="M41.1147 7.72258C40.7616 7.33447 40.391 6.95398 40.0136 6.5918L38.9568 7.69131C39.3098 8.03063 39.6568 8.38671 39.9877 8.74966L41.1147 7.72258Z" fill="#147E93"/>
<path d="M41.826 11.0562L43.0795 10.1869C42.7806 9.75614 42.4634 9.3299 42.1386 8.9212L40.946 9.87432C41.251 10.2586 41.5443 10.6526 41.826 11.0562Z" fill="#147E93"/>
<path d="M44.503 16.2991L45.9419 15.7936C45.7688 15.3018 45.5766 14.8077 45.3692 14.325L43.9678 14.9259C44.1614 15.3773 44.3414 15.8393 44.503 16.2991Z" fill="#147E93"/>
<path d="M45.6948 22.0681L47.2198 21.9606C47.1832 21.4345 47.1283 20.9061 47.0574 20.3906L45.5469 20.5988C45.6109 21.0827 45.6602 21.5725 45.6948 22.0681Z" fill="#147E93"/>
<path d="M1.72638 26.6309L0.214355 26.8345C0.285267 27.3538 0.373717 27.8776 0.478179 28.3908L1.97267 28.0858C1.87431 27.6062 1.79196 27.1159 1.72638 26.6309Z" fill="#147E93"/>
<path d="M23.6099 1.52499C23.857 1.52499 24.075 1.52499 24.3053 1.5349L24.3526 0.00991244C24.1147 8.52155e-09 23.876 0 23.6374 0C23.3469 0 23.0602 0.00533745 22.7727 0.0152499L22.8276 1.54024C23.0874 1.53007 23.3481 1.52499 23.6099 1.52499Z" fill="#147E93"/>
<path d="M38.8399 5.53648C38.4381 5.19869 38.0202 4.87082 37.5978 4.56049L36.6958 5.79496C37.0938 6.08624 37.4812 6.39124 37.8578 6.70996L38.8399 5.53648Z" fill="#147E93"/>
<path d="M27.4926 0.313388C26.9748 0.227989 26.4479 0.160889 25.9264 0.109802L25.7808 1.62793C26.2738 1.6752 26.7621 1.73849 27.2455 1.81779L27.4926 0.313388Z" fill="#147E93"/>
<path d="M30.5646 1.03165C30.0605 0.879152 29.5481 0.739616 29.0396 0.620667L28.6926 2.10524C29.1669 2.21657 29.6465 2.34619 30.1185 2.48649L30.5646 1.03165Z" fill="#147E93"/>
<path d="M36.2946 3.66912C35.8524 3.38852 35.3941 3.1186 34.9328 2.86774L34.2039 4.20744C34.6347 4.44153 35.0632 4.69391 35.4772 4.95697L36.2946 3.66912Z" fill="#147E93"/>
<path d="M33.5179 2.15785C33.0375 1.93749 32.548 1.73085 32.0608 1.54785L31.5171 2.97219C31.9792 3.14858 32.4339 3.33972 32.8812 3.54559L33.5179 2.15785Z" fill="#147E93"/>
<path d="M30.2085 44.7584L30.6614 46.214C31.1624 46.0615 31.6641 45.8839 32.1521 45.6955L31.6031 44.2727C31.1464 44.4473 30.6767 44.6113 30.2085 44.7584Z" fill="#147E93"/>
<path d="M40.041 38.4663L41.1748 39.4896C41.5264 39.1 41.8695 38.6951 42.1943 38.2833L40.9979 37.3378C40.6899 37.7247 40.3709 38.1008 40.041 38.4663Z" fill="#147E93"/>
<path d="M37.9189 40.5197L38.9041 41.6833C39.3036 41.3447 39.6971 40.9887 40.0745 40.6242L39.0139 39.5277C38.6601 39.8708 38.2951 40.2015 37.9189 40.5197Z" fill="#147E93"/>
<path d="M35.5444 42.2735L36.371 43.5575C36.8117 43.2747 37.2494 42.9735 37.6672 42.6631L36.7598 41.4363C36.3644 41.7291 35.9592 42.0082 35.5444 42.2735Z" fill="#147E93"/>
<path d="M32.9602 43.691L33.603 45.0741C34.0734 44.8553 34.547 44.6166 35.0106 44.3612L34.2755 43.0245C33.8424 43.2655 33.3971 43.4897 32.9602 43.691Z" fill="#147E93"/>
<path d="M27.3386 45.4447L27.5902 46.9483C28.1049 46.8622 28.6257 46.7562 29.1381 46.6342L28.7843 45.1511C28.3062 45.2624 27.819 45.3608 27.3386 45.4447Z" fill="#147E93"/>
<path d="M41.8726 36.1491L43.1292 37.0123C43.4265 36.5799 43.7132 36.1323 43.9801 35.6817L42.6686 34.9032C42.417 35.3282 42.1516 35.7435 41.8726 36.1491Z" fill="#147E93"/>
<path d="M45.7497 23.5413V23.6373C45.7497 24.133 45.7337 24.625 45.7017 25.1135L47.2267 25.2149C47.2572 24.6957 47.2747 24.165 47.2747 23.6373V23.5413H45.7497Z" fill="#147E93"/>
<path d="M45.3113 28.04L46.8065 28.3412C46.9095 27.8303 46.9972 27.3065 47.0673 26.7849L45.5553 26.5829C45.4897 27.0739 45.4084 27.5596 45.3113 28.04Z" fill="#147E93"/>
<path d="M24.3999 45.7368L24.4502 47.2617C24.9741 47.2442 25.5048 47.2091 26.0263 47.1565L25.8738 45.6392C25.3858 45.6872 24.8902 45.72 24.3999 45.7368Z" fill="#147E93"/>
<path d="M44.5342 30.8864L45.9745 31.3866C46.1461 30.8932 46.3039 30.3854 46.4419 29.8783L44.9711 29.4765C44.8415 29.95 44.6943 30.4235 44.5342 30.8864Z" fill="#147E93"/>
<path d="M43.3799 33.6085L44.7409 34.2948C44.9788 33.8243 45.203 33.3416 45.4058 32.862L44.0021 32.2657C43.8115 32.7171 43.6025 33.1685 43.3799 33.6085Z" fill="#147E93"/>
<path d="M2.31729 29.5223L0.846436 29.9272C0.984447 30.4297 1.14305 30.9367 1.31613 31.4346L2.75649 30.9314C2.59255 30.4663 2.44615 29.992 2.31729 29.5223Z" fill="#147E93"/>
<path d="M7.22607 40.6486C7.60198 41.0123 7.99619 41.3677 8.39803 41.707L9.38165 40.5411C9.00574 40.2239 8.63669 39.8915 8.28518 39.5499L7.22607 40.6486Z" fill="#147E93"/>
<path d="M9.63721 42.6845C10.0612 42.9963 10.4996 43.2945 10.9403 43.5781L11.76 42.2925C11.3475 42.0295 10.938 41.7481 10.54 41.4538L9.63721 42.6845Z" fill="#147E93"/>
<path d="M6.30143 37.3622L5.10889 38.3115C5.43447 38.7225 5.77836 39.1267 6.12987 39.5148L7.25988 38.49C6.92693 38.1255 6.60744 37.7496 6.30143 37.3622Z" fill="#147E93"/>
<path d="M3.2895 32.3069L1.88574 32.9039C2.09009 33.3828 2.31426 33.8639 2.55369 34.3336L3.91245 33.642C3.68904 33.2036 3.47936 32.7545 3.2895 32.3069Z" fill="#147E93"/>
<path d="M4.62439 34.9344L3.31519 35.716C3.58282 36.1651 3.86952 36.6119 4.16689 37.0435L5.42196 36.1773C5.1439 35.7732 4.87805 35.3589 4.62439 34.9344Z" fill="#147E93"/>
<path d="M12.3005 44.3833C12.7634 44.6372 13.2384 44.8759 13.7104 45.0955L14.3516 43.7116C13.9094 43.5072 13.4656 43.283 13.0318 43.0459L12.3005 44.3833Z" fill="#147E93"/>
<path d="M15.1675 45.7115C15.6578 45.8999 16.1587 46.0737 16.6627 46.2285L17.1111 44.7714C16.6429 44.6265 16.1724 44.4664 15.7134 44.288L15.1675 45.7115Z" fill="#147E93"/>
<path d="M18.1855 46.6426C18.6972 46.7638 19.218 46.8713 19.7334 46.9537L19.9835 45.4493C19.5009 45.3692 19.0144 45.2716 18.5348 45.1588L18.1855 46.6426Z" fill="#147E93"/>
<path d="M21.2988 47.1603C21.8181 47.2114 22.348 47.2457 22.8734 47.2625L22.9222 45.7375C22.4266 45.7212 21.935 45.6892 21.4475 45.6414L21.2988 47.1603Z" fill="#147E93"/>
<path d="M23.6375 10.6749C21.0737 10.6749 18.5676 11.4352 16.4359 12.8595C14.3043 14.2838 12.6429 16.3083 11.6618 18.6768C10.6807 21.0454 10.424 23.6517 10.9241 26.1662C11.4243 28.6806 12.6588 30.9903 14.4717 32.8032C16.2845 34.616 18.5942 35.8505 21.1086 36.3507C23.6231 36.8508 26.2294 36.5941 28.598 35.6131C30.9665 34.632 32.991 32.9705 34.4153 30.8389C35.8396 28.7072 36.5999 26.2011 36.5999 23.6373C36.596 20.2007 35.2291 16.9059 32.799 14.4758C30.369 12.0457 27.0741 10.6788 23.6375 10.6749ZM23.6375 28.9748C23.3828 29.2294 23.0778 29.4282 22.7421 29.5584C22.4063 29.6886 22.0471 29.7475 21.6874 29.7312C21.3276 29.7149 20.9752 29.6239 20.6526 29.4638C20.3299 29.3038 20.0442 29.0783 19.8136 28.8017L16.775 25.1623L19.0625 22.8748L22.1125 25.9248L29.7374 18.2999L32.0249 20.5874L23.6375 28.9748Z" fill="#147E93"/>
<path d="M39.6496 23.6373C39.6496 20.4704 38.7104 17.3746 36.951 14.7413C35.1915 12.1081 32.6907 10.0558 29.7648 8.84382C26.839 7.63188 23.6194 7.31478 20.5133 7.93262C17.4072 8.55046 14.5541 10.0755 12.3147 12.3149C10.0753 14.5542 8.55028 17.4074 7.93244 20.5135C7.31459 23.6196 7.63169 26.8391 8.84363 29.765C10.0556 32.6909 12.1079 35.1917 14.7411 36.9512C17.3744 38.7106 20.4702 39.6497 23.6372 39.6497C27.8825 39.6451 31.9526 37.9566 34.9545 34.9547C37.9564 31.9528 39.6449 27.8827 39.6496 23.6373ZM23.6372 38.1247C20.7718 38.1247 17.9708 37.2751 15.5884 35.6832C13.2059 34.0913 11.3491 31.8287 10.2525 29.1814C9.15602 26.5342 8.86913 23.6213 9.42812 20.811C9.98712 18.0007 11.3669 15.4193 13.393 13.3932C15.4191 11.3671 18.0005 9.98731 20.8108 9.42831C23.6211 8.86931 26.534 9.15621 29.1812 10.2527C31.8285 11.3492 34.0911 13.2061 35.683 15.5886C37.2749 17.971 38.1246 20.772 38.1246 23.6373C38.1203 27.4783 36.5926 31.1608 33.8766 33.8768C31.1606 36.5928 27.4782 38.1205 23.6372 38.1247Z" fill="#147E93"/>
</svg>
