<svg width="46" height="46" viewBox="0 0 46 46" fill="none" xmlns="http://www.w3.org/2000/svg">
<path d="M0 40.0645H22.2581V46H40.0645V40.0645H46V0H0V40.0645ZM32.6452 44.5161H29.6774V39.3226H32.6452V44.5161ZM38.5806 31.9032V44.5161H34.129V39.3226H35.6129V37.8387H26.7097V39.3226H28.1935V44.5161H23.7419V31.9032H23.7336L31.1613 25.4656L38.589 31.9032H38.5806ZM39.3226 30.5751L37.8387 29.2894V27.4516H39.3226V30.5751ZM1.48387 1.48387H44.5161V5.93548H1.48387V1.48387ZM1.48387 7.41935H44.5161V38.5806H40.0645V33.1824L41.8045 34.6898L42.7769 33.5682L40.8065 31.8608V25.9677H36.3548V28.003L31.1613 23.5021L19.5464 33.5682L20.5188 34.6898L22.2581 33.1824V38.5806H1.48387V7.41935ZM13.3548 13.3548C10.0821 13.3548 7.41935 16.0175 7.41935 19.2903C7.41935 22.5631 10.0821 25.2258 13.3548 25.2258C16.6276 25.2258 19.2903 22.5631 19.2903 19.2903C19.2903 16.0175 16.6276 13.3548 13.3548 13.3548ZM13.3548 23.7419C10.8997 23.7419 8.90323 21.7454 8.90323 19.2903C8.90323 16.8352 10.8997 14.8387 13.3548 14.8387C15.81 14.8387 17.8065 16.8352 17.8065 19.2903C17.8065 21.7454 15.81 23.7419 13.3548 23.7419ZM21.2444 23.4014C21.4835 22.942 21.6831 22.4606 21.8404 21.9628L23.7419 21.3017V17.2783L21.8404 16.6171C21.6831 16.1193 21.4842 15.6379 21.2444 15.1785L22.1222 13.3675L19.2776 10.5229L17.4674 11.4C17.0073 11.1602 16.5251 10.9613 16.0281 10.8048L15.3669 8.90323H11.3428L10.6823 10.8055C10.1846 10.9613 9.70313 11.1609 9.24304 11.4007L7.43276 10.5237L4.58819 13.3682L5.46598 15.1792C5.22688 15.6386 5.02727 16.1201 4.87004 16.6178L2.96774 17.279V21.3024L4.86931 21.9635C5.02654 22.4613 5.22543 22.9428 5.46525 23.4021L4.58747 25.2131L7.43203 28.0577L9.24231 27.1799C9.7024 27.419 10.1846 27.6186 10.6816 27.7758L11.3435 29.6774H15.3662L16.0273 27.7758C16.5251 27.6186 17.0066 27.4197 17.4666 27.1799L19.2769 28.0577L22.1215 25.2131L21.2444 23.4014ZM20.5173 21.1962C20.3474 21.8346 20.0953 22.4443 19.7674 23.0072L19.5693 23.3481L20.3261 24.9092L18.9744 26.2608L17.4134 25.504L17.0718 25.7022C16.5081 26.0293 15.8991 26.2815 15.26 26.4521L14.8796 26.5532L14.3112 28.1935H12.3984L11.8293 26.5539L11.4489 26.4528C10.8099 26.2829 10.2002 26.0308 9.63683 25.7029L9.29557 25.5048L7.73453 26.2615L6.38289 24.9099L7.13968 23.3489L6.94152 23.0083C6.61438 22.445 6.36224 21.8353 6.19161 21.197L6.08981 20.8166L4.45161 20.2467V18.3346L6.09054 17.7648L6.19234 17.3844C6.36224 16.7461 6.61438 16.1364 6.94224 15.5734L7.1404 15.2325L6.38362 13.6715L7.73526 12.3198L9.29629 13.0766L9.63683 12.8784C10.2009 12.5513 10.8099 12.2992 11.4482 12.13L11.8293 12.0289L12.3992 10.3871H14.3105L14.8804 12.0267L15.2615 12.1278C15.8998 12.2977 16.5095 12.5491 17.0728 12.8763L17.4134 13.0744L18.9744 12.3177L20.3261 13.6693L19.5693 15.2303L19.7674 15.5709C20.0946 16.1342 20.3467 16.7439 20.5173 17.3822L20.6191 17.7626L22.2581 18.3339V20.246L20.6191 20.8159L20.5173 21.1962ZM16.3226 19.2903H14.8387C14.8387 18.4719 14.1732 17.8065 13.3548 17.8065C12.5365 17.8065 11.871 18.4719 11.871 19.2903C11.871 20.1087 12.5365 20.7742 13.3548 20.7742V22.2581C11.7181 22.2581 10.3871 20.9271 10.3871 19.2903C10.3871 17.6536 11.7181 16.3226 13.3548 16.3226C14.9916 16.3226 16.3226 17.6536 16.3226 19.2903ZM28.1935 36.3548H34.129V30.4194H28.1935V36.3548ZM29.6774 31.9032H32.6452V34.871H29.6774V31.9032ZM43.0323 10.3871H25.2258V8.90323H43.0323V10.3871ZM26.7097 13.3548H25.2258V11.871H26.7097V13.3548ZM28.1935 11.871H43.0323V13.3548H28.1935V11.871ZM43.0323 16.3226H25.2258V14.8387H43.0323V16.3226ZM43.0323 19.2903H25.2258V17.8065H43.0323V19.2903ZM41.5484 20.7742H43.0323V22.2581H41.5484V20.7742ZM40.0645 22.2581H25.2258V20.7742H40.0645V22.2581ZM2.96774 2.96774H4.45161V4.45161H2.96774V2.96774ZM5.93548 2.96774H7.41935V4.45161H5.93548V2.96774ZM8.90323 2.96774H10.3871V4.45161H8.90323V2.96774Z" fill="url(#paint0_linear)"/>
<defs>
<linearGradient id="paint0_linear" x1="23" y1="46" x2="23" y2="0" gradientUnits="userSpaceOnUse">
<stop offset="0.0135135" stop-color="#75E6DA"/>
<stop offset="1" stop-color="#EBFDFF"/>
</linearGradient>
</defs>
</svg>
