<svg width="45" height="45" viewBox="0 0 45 45" fill="none" xmlns="http://www.w3.org/2000/svg">
<path d="M20.2386 20.0797L20.1803 18.6437C20.6418 18.625 21.1147 18.5984 21.5934 18.5646L21.6969 19.9978C21.2024 20.033 20.7144 20.0603 20.2386 20.0797ZM24.6114 19.6758L24.3937 18.2548C23.9315 18.326 23.465 18.3856 22.9993 18.4359L23.1552 19.8648C23.6418 19.8116 24.1292 19.7498 24.6114 19.6758V19.6758ZM27.5109 19.0577L27.1141 17.6762C26.6915 17.7977 26.2387 17.9084 25.7693 18.0076L26.0647 19.4142C26.5679 19.3085 27.0545 19.1885 27.5109 19.0577ZM25.7693 29.5485L26.0647 30.9551C26.5736 30.8488 27.0602 30.7287 27.5109 30.5993L27.1141 29.2179C26.6972 29.3372 26.2452 29.4493 25.7693 29.5485V29.5485ZM23 29.9783L23.156 31.4072C23.6426 31.354 24.1299 31.2915 24.6122 31.2175L24.3944 29.7965C23.9322 29.8684 23.4658 29.928 23 29.9783ZM33.0625 0H44.5625V15.8125H39.5312V19.5083C40.7675 19.8296 41.6875 20.9451 41.6875 22.2812C41.6875 23.6174 40.7675 24.7329 39.5312 25.0542V28.75H44.5625V44.5625H33.0625V28.75H38.0938V25.0542C37.0882 24.7926 36.3012 24.0055 36.0396 23H30.1875V30.9062C30.1875 33.3622 24.2535 34.132 21.5625 34.3548V36.496L19.5486 37.0084C19.463 37.237 19.3674 37.4677 19.2611 37.6956L20.3248 39.4845L16.4853 43.3241L14.6963 42.2611C14.4684 42.3667 14.2384 42.463 14.0092 42.5486L13.496 44.5625H8.06581L7.55334 42.5486C7.32406 42.463 7.09406 42.3667 6.86622 42.2611L5.07725 43.3241L1.23769 39.4845L2.30144 37.6956C2.19578 37.4677 2.09947 37.237 2.01394 37.0084L0 36.496V31.0658L2.01394 30.5533C2.09947 30.3248 2.19506 30.0941 2.30144 29.8662L1.23769 28.0772L5.07725 24.2377L5.75 24.638V13.6562C5.75 10.8136 13.7425 10.0625 17.9688 10.0625C22.195 10.0625 30.1875 10.8136 30.1875 13.6562V21.5625H36.0396C36.3012 20.557 37.0882 19.7699 38.0938 19.5083V15.8125H33.0625V0ZM7.1875 13.6562C7.1875 14.2823 10.9652 15.8125 17.9688 15.8125C24.9723 15.8125 28.75 14.2823 28.75 13.6562C28.75 13.0302 24.9723 11.5 17.9688 11.5C10.9652 11.5 7.1875 13.0302 7.1875 13.6562ZM7.1875 19.4062C7.1875 20.0323 10.9652 21.5625 17.9688 21.5625C24.9723 21.5625 28.75 20.0323 28.75 19.4062V15.4826C26.2552 16.8396 21.0881 17.25 17.9688 17.25C14.8494 17.25 9.68228 16.8396 7.1875 15.4826V19.4062ZM20.125 32.1835L18.4331 31.7537L18.3116 31.3742C18.1829 30.9717 18.0133 30.5648 17.8056 30.1623L17.623 29.8087L18.5186 28.3029L16.2596 26.0439L14.7531 26.9395L14.3987 26.7555C13.9977 26.5485 13.5908 26.3781 13.1891 26.2495L12.8096 26.1287L12.379 24.4375H9.18419L8.75366 26.1294L8.37416 26.2502C7.97238 26.3788 7.56556 26.5492 7.1645 26.7562L6.81016 26.9402L5.30366 26.0446L3.04463 28.3037L3.94019 29.8094L3.75763 30.1631C3.54991 30.5656 3.38028 30.9724 3.25163 31.3749L3.12944 31.7544L1.4375 32.1835V35.3783L3.12944 35.8081L3.25091 36.1876C3.37956 36.5901 3.54919 36.9969 3.75691 37.3994L3.93947 37.7531L3.04391 39.2588L5.30294 41.5179L6.80944 40.6223L7.16378 40.8063C7.56484 41.0133 7.97166 41.1837 8.37344 41.3123L8.75294 41.4331L9.18347 43.125H12.3783L12.8088 41.4331L13.1883 41.3123C13.5901 41.1837 13.9969 41.0133 14.398 40.8063L14.7523 40.6223L16.2588 41.5179L18.5179 39.2588L17.6223 37.7531L17.8049 37.3994C18.0126 36.9969 18.1822 36.5901 18.3109 36.1876L18.4323 35.8081L20.125 35.379V32.1835ZM28.75 30.9062V27.0401C26.8345 28.1477 23.2846 28.7593 19.8397 28.893L19.2603 29.8669C19.366 30.0948 19.4623 30.3255 19.5478 30.5541L21.5625 31.0665V32.9108C26.5959 32.4897 28.75 31.3267 28.75 30.9062V30.9062ZM28.75 25.1562V21.2326C26.2552 22.5896 21.0881 23 17.9688 23C14.8494 23 9.68228 22.5896 7.1875 21.2326V25.167C7.30969 25.1153 7.43116 25.0592 7.55406 25.0132L8.06653 23H13.4967L14.0092 25.0139C14.2384 25.0995 14.4684 25.1958 14.6963 25.3014L16.4853 24.2384L19.706 27.4591C25.6694 27.2442 28.75 25.76 28.75 25.1562ZM43.125 30.1875H34.5V43.125H43.125V30.1875ZM38.8125 20.8438C38.0197 20.8438 37.375 21.4885 37.375 22.2812C37.375 23.074 38.0197 23.7188 38.8125 23.7188C39.6053 23.7188 40.25 23.074 40.25 22.2812C40.25 21.4885 39.6053 20.8438 38.8125 20.8438ZM34.5 14.375H43.125V1.4375H34.5V14.375ZM17.25 33.7812C17.25 37.3484 14.3477 40.25 10.7812 40.25C7.21481 40.25 4.3125 37.3484 4.3125 33.7812C4.3125 30.2141 7.21481 27.3125 10.7812 27.3125C14.3477 27.3125 17.25 30.2141 17.25 33.7812ZM15.8125 33.7812C15.8125 31.0076 13.5556 28.75 10.7812 28.75C8.00688 28.75 5.75 31.0076 5.75 33.7812C5.75 36.5549 8.00688 38.8125 10.7812 38.8125C13.5556 38.8125 15.8125 36.5549 15.8125 33.7812ZM14.375 33.7812C14.375 35.7628 12.7628 37.375 10.7812 37.375C8.79966 37.375 7.1875 35.7628 7.1875 33.7812C7.1875 31.7997 8.79966 30.1875 10.7812 30.1875C12.7628 30.1875 14.375 31.7997 14.375 33.7812ZM12.9375 33.7812C12.9375 32.5924 11.9701 31.625 10.7812 31.625C9.59244 31.625 8.625 32.5924 8.625 33.7812C8.625 34.9701 9.59244 35.9375 10.7812 35.9375C11.9701 35.9375 12.9375 34.9701 12.9375 33.7812ZM41.6875 31.625H35.9375V33.0625H41.6875V31.625ZM41.6875 41.6875H35.9375V37.375H41.6875V41.6875ZM40.25 38.8125H37.375V40.25H40.25V38.8125ZM35.9375 4.3125H41.6875V2.875H35.9375V4.3125ZM35.9375 7.1875H41.6875V5.75H35.9375V7.1875ZM35.9375 10.0625H41.6875V8.625H35.9375V10.0625ZM35.9375 12.9375H41.6875V11.5H35.9375V12.9375ZM41.6875 34.5H35.9375V35.9375H41.6875V34.5ZM11.5 12.9375H10.0625V14.375H11.5V12.9375ZM17.25 12.9375H15.8125V14.375H17.25V12.9375ZM14.375 12.9375H12.9375V14.375H14.375V12.9375ZM23 12.9375H21.5625V14.375H23V12.9375ZM25.875 12.9375H24.4375V14.375H25.875V12.9375ZM20.125 12.9375H18.6875V14.375H20.125V12.9375Z" fill="url(#paint0_linear)"/>
<defs>
<linearGradient id="paint0_linear" x1="22.2812" y1="44.5625" x2="22.2812" y2="0" gradientUnits="userSpaceOnUse">
<stop stop-color="#75E6DA"/>
<stop offset="0.996139" stop-color="#EBFDFF"/>
</linearGradient>
</defs>
</svg>
