<svg width="325" height="54" viewBox="0 0 325 54" fill="none" xmlns="http://www.w3.org/2000/svg">
<path d="M23.44 53.32C21.7867 53.32 19.8667 53.24 17.68 53.08C16.88 53.0267 15.8667 52.9733 14.64 52.92C13.4133 52.8667 12.0267 52.84 10.48 52.84L4.8 52.92C3.78667 52.9733 2.37333 53 0.56 53C0.453333 53 0.4 52.84 0.4 52.52C0.4 52.2 0.453333 52.04 0.56 52.04C2.37333 52.04 3.68 51.9067 4.48 51.64C5.33333 51.3733 5.92 50.8667 6.24 50.12C6.56 49.32 6.72 48.12 6.72 46.52V9.48C6.72 7.88 6.56 6.70667 6.24 5.96C5.97333 5.21333 5.41333 4.70666 4.56 4.44C3.70667 4.12 2.4 3.96 0.64 3.96C0.533333 3.96 0.48 3.8 0.48 3.48C0.48 3.16 0.533333 3 0.64 3L4.88 3.08C7.22667 3.18666 9.09333 3.24 10.48 3.24C12.6133 3.24 14.7733 3.16 16.96 3C19.6267 2.89333 21.4133 2.84 22.32 2.84C27.76 2.84 32.5867 3.90666 36.8 6.04C41.0133 8.17333 44.2667 11.08 46.56 14.76C48.9067 18.44 50.08 22.5733 50.08 27.16C50.08 32.3333 48.88 36.92 46.48 40.92C44.08 44.8667 40.8533 47.9333 36.8 50.12C32.7467 52.2533 28.2933 53.32 23.44 53.32ZM22.64 51.72C26.32 51.72 29.5733 50.84 32.4 49.08C35.28 47.32 37.52 44.7333 39.12 41.32C40.72 37.8533 41.52 33.72 41.52 28.92C41.52 24.3333 40.7467 20.2 39.2 16.52C37.7067 12.7867 35.5733 9.85333 32.8 7.72C30.0267 5.53333 26.8 4.44 23.12 4.44C20.88 4.44 19.1467 4.57333 17.92 4.84C16.6933 5.10666 15.7867 5.61333 15.2 6.36C14.6667 7.05333 14.4 8.14666 14.4 9.64V45.64C14.4 47.8267 14.96 49.4 16.08 50.36C17.2 51.2667 19.3867 51.72 22.64 51.72ZM88.3856 11.48C88.3856 13.4533 88.8656 15.2133 89.8256 16.76C90.839 18.2533 92.0656 19.56 93.5056 20.68C94.999 21.8 96.999 23.1333 99.5056 24.68C102.226 26.3867 104.359 27.8533 105.906 29.08C107.506 30.3067 108.839 31.8267 109.906 33.64C111.026 35.4 111.586 37.48 111.586 39.88C111.586 42.6 110.866 45.0267 109.426 47.16C108.039 49.2933 106.039 50.9733 103.426 52.2C100.866 53.3733 97.9323 53.96 94.6256 53.96C92.3856 53.96 90.0656 53.6667 87.6656 53.08C85.319 52.4933 83.5323 51.7733 82.3056 50.92C81.8256 50.6 81.559 50.0933 81.5056 49.4L81.0256 37.24V37.16C81.0256 36.9467 81.159 36.84 81.4256 36.84C81.6923 36.7867 81.8523 36.8667 81.9056 37.08C83.6656 41.5067 85.6656 45.1333 87.9056 47.96C90.199 50.7867 93.1056 52.2 96.6256 52.2C98.919 52.2 100.839 51.5867 102.386 50.36C103.932 49.08 104.706 46.9733 104.706 44.04C104.706 41.6933 104.172 39.64 103.106 37.88C102.092 36.12 100.812 34.6533 99.2656 33.48C97.7723 32.3067 95.719 30.8667 93.1056 29.16C90.5456 27.5067 88.5456 26.12 87.1056 25C85.6656 23.8267 84.439 22.4133 83.4256 20.76C82.4123 19.0533 81.9056 17.08 81.9056 14.84C81.9056 12.0667 82.679 9.72 84.2256 7.8C85.7723 5.88 87.7723 4.46667 90.2256 3.56C92.7323 2.6 95.3456 2.12 98.0656 2.12C99.879 2.12 101.692 2.30666 103.506 2.68C105.319 3 106.839 3.42666 108.066 3.96C108.546 4.12 108.866 4.33333 109.026 4.6C109.186 4.81333 109.266 5.10666 109.266 5.48L109.506 16.36C109.506 16.52 109.346 16.6533 109.026 16.76C108.759 16.8133 108.599 16.7333 108.546 16.52C107.479 13.2667 106.039 10.3333 104.226 7.72C102.466 5.05333 99.799 3.72 96.2256 3.72C93.8256 3.72 91.9056 4.41333 90.4656 5.8C89.079 7.18667 88.3856 9.08 88.3856 11.48ZM181.893 52.04C181.999 52.04 182.053 52.2 182.053 52.52C182.053 52.84 181.999 53 181.893 53C180.133 53 178.719 52.9733 177.653 52.92L171.893 52.84L166.293 52.92C165.333 52.9733 163.973 53 162.213 53C162.106 53 162.053 52.84 162.053 52.52C162.053 52.2 162.106 52.04 162.213 52.04C164.559 52.04 166.133 51.7733 166.933 51.24C167.733 50.7067 168.133 49.5867 168.133 47.88L168.053 46.52L166.453 12.6L149.413 52.44C149.306 52.6533 149.093 52.76 148.773 52.76C148.506 52.76 148.266 52.6533 148.053 52.44L128.053 12.92L127.333 43.32C127.279 46.1467 127.813 48.3067 128.933 49.8C130.106 51.2933 131.839 52.04 134.133 52.04C134.293 52.04 134.373 52.2 134.373 52.52C134.373 52.84 134.293 53 134.133 53C132.693 53 131.573 52.9733 130.773 52.92L126.372 52.84L121.653 52.92C120.853 52.9733 119.733 53 118.293 53C118.133 53 118.053 52.84 118.053 52.52C118.053 52.2 118.133 52.04 118.293 52.04C120.479 52.04 122.159 51.2933 123.333 49.8C124.559 48.3067 125.199 46.1467 125.253 43.32L125.973 8.92C125.013 7.21333 123.946 5.96 122.773 5.16C121.653 4.36 120.346 3.96 118.853 3.96C118.693 3.96 118.613 3.8 118.613 3.48C118.613 3.16 118.693 3 118.853 3L122.293 3.08C122.986 3.13333 123.893 3.16 125.013 3.16L128.773 3.08C129.199 3.02667 129.733 3 130.373 3C131.066 3 131.626 3.26667 132.053 3.8C132.479 4.28 133.146 5.4 134.053 7.16L151.653 41.48L167.573 5C167.893 4.25333 168.239 3.74667 168.613 3.48C168.986 3.16 169.439 3 169.973 3C170.346 3 170.826 3.02667 171.413 3.08C171.999 3.13333 172.719 3.16 173.573 3.16L177.893 3.08C178.586 3.02667 179.626 3 181.013 3C181.119 3 181.173 3.16 181.173 3.48C181.173 3.8 181.119 3.96 181.013 3.96C178.453 3.96 176.586 4.44 175.413 5.4C174.293 6.30667 173.786 7.82666 173.893 9.96L175.733 46.52C175.839 48.1733 176.026 49.3733 176.293 50.12C176.613 50.8667 177.173 51.3733 177.973 51.64C178.773 51.9067 180.079 52.04 181.893 52.04ZM233.864 4.68C230.611 4.68 227.918 5.69333 225.784 7.72C223.704 9.69333 222.104 12.7067 220.984 16.76C220.984 16.8667 220.824 16.92 220.504 16.92C220.238 16.92 220.104 16.84 220.104 16.68C220.318 14.6 220.558 11.9333 220.824 8.68C221.091 5.37333 221.224 2.89333 221.224 1.24C221.224 0.973332 221.358 0.839999 221.624 0.839999C221.944 0.839999 222.104 0.973332 222.104 1.24C222.104 2.41333 223.598 3 226.584 3C231.171 3.16 236.531 3.24 242.664 3.24C245.811 3.24 249.144 3.18666 252.664 3.08L258.104 3C260.131 3 261.598 2.86667 262.504 2.6C263.464 2.33333 264.078 1.8 264.344 0.999997C264.398 0.786663 264.558 0.679996 264.824 0.679996C265.091 0.679996 265.224 0.786663 265.224 0.999997C265.064 2.65333 264.904 5.16 264.744 8.52C264.584 11.88 264.504 14.6 264.504 16.68C264.504 16.84 264.344 16.92 264.024 16.92C263.758 16.92 263.598 16.84 263.544 16.68C263.011 12.5733 261.758 9.56 259.784 7.64C257.811 5.66666 255.144 4.68 251.784 4.68C250.291 4.68 249.171 4.81333 248.424 5.08C247.731 5.34666 247.251 5.82666 246.984 6.52C246.771 7.16 246.664 8.2 246.664 9.64V46.52C246.664 48.1733 246.824 49.3733 247.144 50.12C247.464 50.8667 248.104 51.3733 249.064 51.64C250.024 51.9067 251.544 52.04 253.624 52.04C253.784 52.04 253.864 52.2 253.864 52.52C253.864 52.84 253.784 53 253.624 53C251.758 53 250.291 52.9733 249.224 52.92L242.664 52.84L236.424 52.92C235.304 52.9733 233.758 53 231.784 53C231.678 53 231.624 52.84 231.624 52.52C231.624 52.2 231.678 52.04 231.784 52.04C233.864 52.04 235.384 51.9067 236.344 51.64C237.358 51.3733 238.024 50.8667 238.344 50.12C238.718 49.32 238.904 48.12 238.904 46.52V9.48C238.904 8.09333 238.771 7.08 238.504 6.44C238.238 5.8 237.758 5.34666 237.064 5.08C236.371 4.81333 235.304 4.68 233.864 4.68ZM296.186 53.96C291.226 53.96 286.8 52.8133 282.906 50.52C279.066 48.1733 276.08 45.0267 273.946 41.08C271.866 37.08 270.826 32.7333 270.826 28.04C270.826 22.5467 272.213 17.8533 274.986 13.96C277.76 10.0133 281.306 7.05333 285.626 5.08C290 3.10666 294.453 2.12 298.986 2.12C304.053 2.12 308.506 3.32 312.346 5.72C316.186 8.06666 319.12 11.1867 321.146 15.08C323.226 18.9733 324.266 23.1067 324.266 27.48C324.266 32.3333 322.986 36.7867 320.426 40.84C317.866 44.8933 314.426 48.0933 310.106 50.44C305.84 52.7867 301.2 53.96 296.186 53.96ZM298.906 52.04C302.106 52.04 304.96 51.1867 307.466 49.48C310.026 47.72 312.026 45.16 313.466 41.8C314.96 38.44 315.706 34.44 315.706 29.8C315.706 24.8933 314.88 20.4933 313.226 16.6C311.626 12.7067 309.306 9.66667 306.266 7.48C303.28 5.29333 299.76 4.2 295.706 4.2C290.533 4.2 286.506 6.06667 283.626 9.8C280.8 13.48 279.386 18.6 279.386 25.16C279.386 30.2267 280.213 34.8133 281.866 38.92C283.573 43.0267 285.893 46.2533 288.826 48.6C291.813 50.8933 295.173 52.04 298.906 52.04Z" fill="#75E6DA"/>
<path d="M57.5356 53C57.3756 53 57.2956 52.84 57.2956 52.52C57.2956 52.2 57.3756 52.04 57.5356 52.04C59.349 52.04 60.549 51.6667 61.1356 50.92C61.7223 50.1733 62.0156 48.7067 62.0156 46.52V31.96C62.0156 30.1467 61.829 28.84 61.4556 28.04C61.0823 27.1867 60.4423 26.76 59.5356 26.76C58.7356 26.76 57.6956 27.08 56.4156 27.72H56.3356C56.1223 27.72 55.9623 27.5867 55.8556 27.32C55.749 27.0533 55.7756 26.8667 55.9356 26.76L67.4556 21.4L67.6956 21.32C67.909 21.32 68.1223 21.4533 68.3356 21.72C68.6023 21.9333 68.7356 22.12 68.7356 22.28V23.96C68.629 26.2 68.5756 28.84 68.5756 31.88V46.52C68.5756 48.7067 68.869 50.1733 69.4556 50.92C70.0956 51.6667 71.3223 52.04 73.1356 52.04C73.2956 52.04 73.3756 52.2 73.3756 52.52C73.3756 52.84 73.2956 53 73.1356 53C71.8023 53 70.7356 52.9733 69.9356 52.92L65.2956 52.84L60.6556 52.92C59.909 52.9733 58.869 53 57.5356 53ZM64.8956 12.92C63.509 12.92 62.4156 12.5467 61.6156 11.8C60.869 11.0533 60.4956 9.98666 60.4956 8.6C60.4956 7.26666 60.869 6.25333 61.6156 5.56C62.4156 4.81333 63.509 4.44 64.8956 4.44C66.229 4.44 67.269 4.81333 68.0156 5.56C68.7623 6.25333 69.1356 7.26666 69.1356 8.6C69.1356 9.98666 68.7623 11.0533 68.0156 11.8C67.3223 12.5467 66.2823 12.92 64.8956 12.92ZM214.181 47.96C214.288 47.96 214.395 48.0667 214.501 48.28C214.661 48.4933 214.688 48.6533 214.581 48.76C212.661 50.5733 210.715 51.9067 208.741 52.76C206.768 53.56 204.608 53.96 202.261 53.96C198.955 53.96 196.101 53.2667 193.701 51.88C191.355 50.44 189.541 48.5467 188.261 46.2C187.035 43.8 186.421 41.24 186.421 38.52C186.421 35.3733 187.195 32.4933 188.741 29.88C190.341 27.2667 192.501 25.2133 195.221 23.72C197.995 22.1733 201.035 21.4 204.341 21.4C207.488 21.4 209.915 22.12 211.621 23.56C213.328 24.9467 214.181 26.8667 214.181 29.32C214.181 30.76 213.888 31.48 213.301 31.48H208.901L193.861 31.64C193.701 32.76 193.621 33.96 193.621 35.24C193.621 39.88 194.688 43.5867 196.821 46.36C199.008 49.08 202.021 50.44 205.861 50.44C207.248 50.44 208.661 50.2533 210.101 49.88C211.541 49.4533 212.848 48.84 214.021 48.04L214.181 47.96ZM201.461 23C199.701 23 198.181 23.64 196.901 24.92C195.621 26.2 194.715 27.96 194.181 30.2L206.661 29.96C206.555 27.7733 206.075 26.0667 205.221 24.84C204.368 23.6133 203.115 23 201.461 23Z" fill="#EBFDFF"/>
</svg>
