<svg width="50" height="54" viewBox="0 0 50 54" fill="none" xmlns="http://www.w3.org/2000/svg">
<path d="M48.4678 9.34684C40.577 7.30094 32.6398 4.11513 25.5144 0.133877C25.1947 -0.0447883 24.8052 -0.0447883 24.4855 0.133877C17.1553 4.22915 9.64716 7.24272 1.53203 9.34684C1.06691 9.46749 0.742065 9.88726 0.742065 10.3678V22.0109C0.742065 33.9852 6.57368 41.9062 11.4658 46.4424C16.7136 51.3087 22.7994 53.9999 25 53.9999C27.2004 53.9999 33.2862 51.3087 38.5342 46.4424C43.4263 41.9061 49.2579 33.9851 49.2579 22.0109V10.3678C49.2579 9.88737 48.9329 9.46749 48.4678 9.34684ZM37.0999 44.8958C34.1935 47.5909 31.3691 49.2923 29.5116 50.245C27.1576 51.4523 25.5238 51.8906 25.0001 51.8906C24.4764 51.8906 22.8425 51.4524 20.4886 50.245C18.631 49.2922 15.8066 47.5909 12.9002 44.8958C8.31593 40.645 2.85145 33.2242 2.85145 22.0109V11.1805C10.6523 9.09223 17.9125 6.1682 25.0001 2.26067C31.9081 6.06389 39.5365 9.13569 47.1484 11.1801V22.0109H47.1485C47.1485 33.2242 41.6841 40.645 37.0999 44.8958Z" fill="#147E93"/>
<path d="M44.8063 12.1678C38.1263 10.2258 31.6295 7.58803 25.4963 4.32776C25.1866 4.16312 24.8151 4.16312 24.5052 4.32829C18.363 7.60195 11.8662 10.2403 5.19511 12.1698C4.74402 12.3003 4.43341 12.7133 4.43341 13.183V22.0109C4.43341 26.1323 5.21441 30.0434 6.75458 33.6358C8.28705 37.2102 10.5727 40.4723 13.5477 43.3317C15.6754 45.3768 18.1323 47.1789 20.6527 48.5434C21.1042 48.7878 23.4268 50.0201 24.8084 50.2753C24.8717 50.287 24.9358 50.2929 24.9998 50.2929C25.064 50.2929 25.1281 50.287 25.1913 50.2753C26.5726 50.0203 28.8953 48.7878 29.347 48.5434C31.8672 47.179 34.324 45.377 36.4519 43.3318C39.427 40.4724 41.7125 37.2103 43.245 33.6359C44.7856 30.0434 45.5666 26.1323 45.5666 22.0109V13.1806C45.5666 12.7116 45.2567 12.2988 44.8063 12.1678ZM43.4571 22.0109C43.4571 29.7496 40.6085 36.4113 34.9904 41.8108C32.9974 43.7264 30.6988 45.4129 28.343 46.6883C27.2707 47.2687 25.8231 47.9454 25 48.1579C24.1766 47.9454 22.7292 47.2688 21.6571 46.6883C19.3011 45.4129 17.0024 43.7264 15.0095 41.8108C9.39142 36.4113 6.5429 29.7497 6.5429 22.0109V13.9726C12.9084 12.0772 19.1118 9.54986 25.0018 6.45212C30.8827 9.5371 37.0854 12.0635 43.4571 13.9691V22.0109Z" fill="#147E93"/>
<path d="M16.2488 37.7898L16.2232 37.7622C15.8278 37.3346 15.1604 37.3087 14.7328 37.7042C14.3052 38.0997 14.2792 38.767 14.6748 39.1946C14.6757 39.1957 14.684 39.2046 14.6878 39.2086C14.8954 39.4349 15.1798 39.5501 15.4652 39.5501C15.7165 39.5501 15.9688 39.4608 16.1703 39.2794C16.6033 38.8896 16.6384 38.2227 16.2488 37.7898Z" fill="#147E93"/>
<path d="M21.9376 42.5772C20.6673 41.7756 19.444 40.8515 18.3018 39.8303C17.8677 39.4421 17.2008 39.4793 16.8125 39.9138C16.4243 40.348 16.4616 41.0148 16.8959 41.403C18.1252 42.502 19.4427 43.4973 20.8118 44.3612C20.9866 44.4715 21.1812 44.5241 21.3737 44.5241C21.7236 44.5241 22.066 44.3499 22.2666 44.032C22.5776 43.5393 22.4302 42.888 21.9376 42.5772Z" fill="#147E93"/>
<path d="M34.2352 18.4978C33.6134 17.8759 32.7842 17.5336 31.9007 17.5336C31.0171 17.5336 30.188 17.876 29.5662 18.4978L22.8652 25.1989L20.4335 22.7673C19.8118 22.1454 18.9828 21.803 18.0992 21.803C17.2157 21.803 16.3866 22.1454 15.7646 22.7673C14.4775 24.0544 14.4775 26.1489 15.7646 27.4361L20.5309 32.2021C21.1526 32.824 21.9817 33.1664 22.8652 33.1664C23.7489 33.1664 24.578 32.824 25.1997 32.2021L34.2352 23.1667C34.857 22.545 35.1994 21.7159 35.1994 20.8322C35.1994 19.9486 34.857 19.1196 34.2352 18.4978ZM32.7435 21.6751L23.7081 30.7106C23.4847 30.934 23.1853 31.0571 22.8652 31.0571C22.5451 31.0571 22.2457 30.9341 22.0223 30.7106L17.2564 25.9446C17.033 25.7213 16.91 25.4219 16.91 25.1018C16.9099 24.7816 17.033 24.4823 17.2565 24.2589C17.4799 24.0355 17.7792 23.9126 18.0993 23.9126C18.4194 23.9126 18.7186 24.0355 18.9421 24.2589L22.1196 27.4363C22.5314 27.8482 23.1993 27.8482 23.6111 27.4363L31.0579 19.9894C31.2813 19.766 31.5805 19.6431 31.9007 19.6431C32.2208 19.6431 32.5201 19.7662 32.7435 19.9895C32.9669 20.2129 33.0899 20.5122 33.0899 20.8323C33.0899 21.1525 32.9669 21.4519 32.7435 21.6751Z" fill="#147E93"/>
</svg>
