<svg width="57" height="57" viewBox="0 0 57 57" fill="none" xmlns="http://www.w3.org/2000/svg">
<path d="M20.1889 14.6828C20.1889 15.1894 19.7769 15.6005 19.2712 15.6005C18.7656 15.6005 18.3535 15.1894 18.3535 14.6828H16.5182C16.5182 16.2007 17.7534 17.4358 19.2712 17.4358C20.7891 17.4358 22.0242 16.2007 22.0242 14.6828H20.1889Z" fill="#147E93"/>
<path d="M54.1429 3.6707H25.0672C24.0349 1.50407 21.8297 0 19.274 0H15.0875C6.76786 0 0 6.76878 0 15.0875C0 20.3238 2.65117 25.1067 7.0918 27.8827L7.34141 28.0396V32.5371C2.73468 35.6141 0 40.7136 0 46.2821V56.8959H51.3899C52.4021 56.8959 53.2252 56.0728 53.2252 55.0606V53.2252C53.2252 52.213 52.4021 51.3899 51.3899 51.3899H45.6278L44.4045 47.7192H54.1429C55.6607 47.7192 56.8959 46.484 56.8959 44.9661V6.42373C56.8959 4.9059 55.6607 3.6707 54.1429 3.6707ZM1.83535 15.0875C1.83535 7.78098 7.78098 1.83535 15.0875 1.83535H19.274C21.8022 1.83535 23.8596 3.89186 23.8596 6.4274C23.8596 7.65158 23.3824 8.80235 22.517 9.6668C21.6526 10.5303 20.5036 11.0066 19.2813 11.0066C19.2804 11.0066 19.2785 11.0066 19.2776 11.0066C18.9702 11.0066 18.6609 11.0066 18.3517 11.0057V11.0048C18.3508 11.0048 18.3489 11.0048 18.3471 11.0048C17.8598 11.0048 17.4019 10.8157 17.0568 10.4716C16.709 10.1247 16.5182 9.66405 16.5182 9.17309C16.5182 8.16365 17.3404 7.34141 18.3499 7.34141V5.50606C16.3273 5.50606 14.6828 7.15145 14.6828 9.17309C14.6828 9.82923 14.8673 10.4523 15.1885 11.0039C14.1909 11.0039 13.3504 11.0039 12.8456 11.0048C12.8447 11.0048 12.8429 11.0048 12.841 11.0048C12.3538 11.0048 11.8958 10.8157 11.5508 10.4716C11.203 10.1247 11.0121 9.66405 11.0121 9.17309C11.0121 8.16365 11.8344 7.34141 12.8438 7.34141H12.8475L12.8438 5.50606C10.8212 5.50606 9.17676 7.15145 9.17676 9.17309C9.17676 9.44931 9.21439 9.71819 9.27312 9.98156C8.06821 10.9075 7.34141 12.3437 7.34141 13.8955V14.6947C5.29132 14.8517 3.6707 16.5696 3.6707 18.6591C3.6707 19.9035 4.26536 21.0928 5.26104 21.8407L7.34141 23.4007V25.8418C3.8781 23.353 1.83535 19.3951 1.83535 15.0875ZM22.0242 19.6218V23.8596H20.1889C19.1767 23.8596 18.3535 23.0364 18.3535 22.0242H16.5182C16.5182 24.0486 18.1645 25.6949 20.1889 25.6949H21.5177C21.3589 25.9684 21.1772 26.229 20.9478 26.4584C20.2559 27.1504 19.3364 27.5303 18.3572 27.5303C18.3563 27.5303 18.3544 27.5303 18.3535 27.5303H12.8475V29.3656H14.6828V33.6971L9.17676 32.3206V22.4831L6.36317 20.3724C5.82633 19.9705 5.50606 19.329 5.50606 18.6591C5.50606 17.479 6.46686 16.5182 7.647 16.5182H9.17676V13.8955C9.17676 13.0292 9.53649 12.2189 10.1467 11.6407C10.1853 11.682 10.2137 11.7307 10.2541 11.771C10.946 12.4611 11.8637 12.841 12.841 12.841H12.8502C13.9716 12.8383 16.6953 12.8401 19.2758 12.8429H19.2813C20.1366 12.8429 20.9661 12.6768 21.7333 12.3593C22.4023 13.6376 23.6595 16.319 23.8385 18.7151L22.0242 19.6218ZM13.5073 35.2938L12.0904 36.3565L10.6735 34.5854L13.5073 35.2938ZM1.83535 46.2821C1.83535 41.4533 4.15248 37.0218 8.06913 34.2679L11.7692 38.893L15.6097 36.0124C16.119 36.3941 16.5934 36.8162 17.0312 37.276C16.7146 37.6055 16.5182 38.0505 16.5182 38.5424V47.7192C16.5182 48.7314 17.3413 49.5545 18.3535 49.5545H20.1889V55.0606H9.17676V45.726C9.17676 43.8062 8.42977 42.002 7.07253 40.6466L5.77494 41.9442C6.7853 42.9546 7.34141 44.2971 7.34141 45.726V55.0606H1.83535V46.2821ZM33.0363 24.4799V22.0242H33.129C33.3942 23.3264 34.2238 24.4139 35.3388 25.0617L35.2553 25.3123C35.1516 25.6243 34.8873 25.8583 34.5643 25.9225C34.1256 26.0106 33.7007 26.1327 33.2841 26.2703C33.1345 25.6922 33.0363 25.0966 33.0363 24.4799ZM31.201 14.1983C31.201 11.4287 33.4539 9.17676 36.2225 9.17676H42.6976C45.4663 9.17676 47.7192 11.4287 47.7192 14.1983C47.7192 14.514 47.6834 14.8306 47.6237 15.1417C47.1034 14.8581 46.5161 14.6828 45.8838 14.6828H45.3736C44.7367 13.5908 43.5658 12.8475 42.2131 12.8475V14.6828C43.2253 14.6828 44.0485 15.506 44.0485 16.5182V21.1066C44.0485 22.6244 42.8133 23.8596 41.2954 23.8596H37.6247C36.1069 23.8596 34.8717 22.6244 34.8717 21.1066V16.5182C34.8717 15.506 35.6949 14.6828 36.707 14.6828V12.8475C35.3544 12.8475 34.1834 13.5908 33.5466 14.6828H33.0363C32.4041 14.6828 31.8168 14.8581 31.2964 15.1417C31.2368 14.8296 31.201 14.514 31.201 14.1983ZM45.8838 24.4799C45.8838 25.0966 45.7847 25.6922 45.6351 26.2694C45.2185 26.1317 44.7936 26.0097 44.355 25.9216C44.0329 25.8574 43.7686 25.6234 43.6649 25.3113L43.5814 25.0608C44.6963 24.4139 45.5259 23.3264 45.7911 22.0242H45.8838V24.4799ZM45.8838 20.1889V16.5182C46.896 16.5182 47.7192 17.3413 47.7192 18.3535C47.7192 19.3657 46.896 20.1889 45.8838 20.1889ZM33.0363 20.1889C32.0241 20.1889 31.201 19.3657 31.201 18.3535C31.201 17.3413 32.0241 16.5182 33.0363 16.5182V20.1889ZM34.9249 27.7212C35.8922 27.5285 36.6859 26.8264 36.997 25.8922L37.0815 25.6399C37.2613 25.6619 37.4384 25.6949 37.6247 25.6949H41.2954C41.4817 25.6949 41.6588 25.6619 41.8396 25.6399L41.924 25.8922C42.2351 26.8273 43.0298 27.5285 43.9962 27.7212C44.3238 27.7863 44.6413 27.8744 44.9542 27.9735C44.3036 29.1289 43.3437 30.0979 42.1498 30.7449C41.9442 29.9539 41.2312 29.3656 40.3778 29.3656H38.5424C37.689 29.3656 36.9759 29.9539 36.7713 30.744C35.5774 30.097 34.6175 29.1289 33.9669 27.9726C34.2798 27.8744 34.5973 27.7863 34.9249 27.7212ZM51.3899 38.5424H40.3778V34.8717C41.3899 34.8717 42.2131 34.0485 42.2131 33.0363V32.7519C44.1512 31.9416 45.7003 30.4971 46.6556 28.7104C49.5059 30.3017 51.3899 33.3438 51.3899 36.741V38.5424ZM38.5424 33.0363V31.201H40.3778L40.3787 33.0363H38.5424ZM36.707 32.7519V33.0363C36.707 34.0485 37.5302 34.8717 38.5424 34.8717V38.5424H27.5303V36.741C27.5303 33.3438 29.4143 30.3017 32.2646 28.7104C33.2199 30.4971 34.7689 31.9416 36.707 32.7519ZM38.2212 51.3899H27.8515C27.6477 50.8145 27.5303 50.1987 27.5303 49.5545V47.7192H38.5424V49.5545C38.5424 50.1987 38.4249 50.8145 38.2212 51.3899ZM33.0363 55.0606C31.4111 55.0606 29.953 54.3485 28.9435 53.2252H37.1283C36.1197 54.3485 34.6615 55.0606 33.0363 55.0606ZM29.3656 45.8838V40.3778H38.5424V45.8838H29.3656ZM27.5303 40.3778V45.8838H25.6949V40.3778H27.5303ZM25.9363 51.3899H22.0242V48.8094C22.3858 47.8128 23.0649 46.9657 23.9394 46.3904C24.1615 47.1548 24.8598 47.7192 25.6949 47.7192V49.5545C25.6949 50.1895 25.7839 50.8016 25.9363 51.3899ZM23.8596 44.343C23.1805 44.6495 22.562 45.068 22.0242 45.5727V40.6907C22.562 41.1945 23.1805 41.6139 23.8596 41.9204V44.343ZM20.1889 47.7192H18.3535V38.5424H20.1889V47.7192ZM22.0242 55.0606V53.2252H26.6879C27.0889 53.9162 27.6 54.5357 28.1965 55.0606H22.0242ZM51.3899 55.0606H37.8762C38.4727 54.5357 38.9829 53.9162 39.3848 53.2252H51.3899V55.0606ZM43.6924 51.3899H40.1355C40.2887 50.8016 40.3778 50.1895 40.3778 49.5545V47.7192H42.4691L43.6924 51.3899ZM55.0606 44.9661C55.0606 45.4727 54.6485 45.8838 54.1429 45.8838H40.3778V40.3778H55.0606V44.9661ZM55.0606 38.5424H53.2252V36.741C53.2252 32.5894 50.8796 28.8793 47.3521 27.0017C47.5879 26.196 47.7192 25.3508 47.7192 24.4799V21.514C48.8112 20.8771 49.5545 19.7062 49.5545 18.3535C49.5545 17.7249 49.3811 17.1413 49.1012 16.6237C49.393 15.851 49.5545 15.0233 49.5545 14.1983C49.5545 10.4175 46.4785 7.34141 42.6976 7.34141H36.2225C32.4417 7.34141 29.3656 10.4175 29.3656 14.1983C29.3656 15.0242 29.5271 15.851 29.819 16.6237C29.5391 17.1413 29.3656 17.7249 29.3656 18.3535C29.3656 19.7062 30.109 20.8771 31.201 21.514V24.4799C31.201 25.3508 31.3322 26.196 31.5681 27.0017C28.0405 28.8793 25.6949 32.5894 25.6949 36.741V38.5424C24.8598 38.5424 24.1615 39.1068 23.9394 39.8712C23.03 39.2729 22.3261 38.3836 21.9765 37.3347L21.7682 36.707H18.9739C18.2563 35.8371 17.4331 35.0662 16.5182 34.4055V29.3656H18.3526H18.3581C19.8264 29.3656 21.2066 28.7948 22.2445 27.757C23.286 26.7172 23.8596 25.3325 23.8596 23.8596V20.756L25.6949 19.8383V19.2712C25.6949 16.2787 24.1046 12.909 23.3126 11.4159C23.4861 11.2755 23.654 11.1259 23.8146 10.9662C25.0269 9.75398 25.6949 8.14162 25.6949 6.42098C25.6949 6.10989 25.6646 5.80614 25.6224 5.50606H54.1429C54.6485 5.50606 55.0606 5.91718 55.0606 6.42373V38.5424Z" fill="#147E93"/>
<path d="M41.7791 17.3404L41.9204 17.3881L42.5059 15.6482L42.3618 15.6005C41.1752 15.2041 40.3778 14.0983 40.3778 12.8475H38.5424C38.5424 14.8902 39.8437 16.6953 41.7791 17.3404Z" fill="#147E93"/>
<path d="M51.3899 42.2131H53.2252V44.0485H51.3899V42.2131Z" fill="#147E93"/>
<path d="M47.7192 42.2131H49.5545V44.0485H47.7192V42.2131Z" fill="#147E93"/>
<path d="M44.0485 42.2131H45.8838V44.0485H44.0485V42.2131Z" fill="#147E93"/>
</svg>
