<svg width="59" height="57" viewBox="0 0 59 57" fill="none" xmlns="http://www.w3.org/2000/svg">
<path d="M57.3062 36.2027C57.2674 36.1945 57.2287 36.1883 57.1901 36.1841C56.6113 36.1201 56.0683 36.5039 55.9443 37.0846C54.582 43.4668 50.3179 49.0827 44.5394 52.1266L40.1564 47.7456C39.771 47.3605 39.5587 46.8487 39.5587 46.3048V42.8556C39.5587 42.3117 39.771 41.7999 40.1564 41.4148L46.6261 34.9496C47.9589 33.6176 48.693 31.8463 48.693 29.9619V25.5773C48.693 23.1545 46.6701 21.133 44.2456 21.133C43.4385 21.133 42.7819 20.4769 42.7819 19.6703V18.2879C42.7819 17.4807 43.4385 16.824 44.2456 16.824H50.0768C52.9548 19.7712 55.0063 23.5196 55.9022 27.5412C56.0398 28.1593 56.653 28.5485 57.2711 28.4111C57.8344 28.2858 58.267 27.606 58.1416 27.0429C55.752 16.323 46.175 8.32405 35.1945 7.84237C35.588 6.95627 35.7851 5.98432 35.7526 4.99448L35.6861 2.96517C35.6345 1.39335 34.362 0.121633 32.789 0.070164L30.7584 0.00367808C28.8968 -0.059025 27.0994 0.682522 25.8211 2.03368C25.8144 2.04067 25.808 2.04766 25.8016 2.05477L22.2331 6.02111L8.12874 0.924852C7.71028 0.773768 7.24215 0.877968 6.9275 1.19229L4.13868 3.97908C3.89848 4.21912 3.77712 4.55326 3.80717 4.89131C3.83746 5.22947 4.01594 5.53691 4.29492 5.73075L15.4927 13.5128L9.10561 20.6124C8.62486 21.1468 7.91515 21.3929 7.20579 21.2707L4.39885 20.7866C4.03189 20.7236 3.65633 20.8422 3.39273 21.1057L0.335948 24.1605C0.0614484 24.4349 -0.0555553 24.8293 0.0249708 25.2088C0.105382 25.5884 0.372541 25.9014 0.734793 26.0408L7.20556 28.5311L9.6366 34.8396C10.8539 47.2336 21.6819 57 34.1238 57C45.5984 57 55.7995 48.7544 58.1888 37.563C58.3209 36.9438 57.9258 36.3348 57.3062 36.2027ZM27.8654 15.191L32.0016 27.2604L30.6992 28.562L23.9792 18.6818L27.8654 15.191ZM6.73077 4.6311L8.03433 3.32855L20.5778 7.86082L17.0387 11.7946L6.73077 4.6311ZM8.50522 26.5744L3.20564 24.5349L4.59454 23.147L6.81555 23.53C8.30608 23.7867 9.80017 23.2694 10.8116 22.1451L27.4972 3.59896C28.3237 2.73086 29.4832 2.25618 30.683 2.29504L32.7137 2.36152C33.0824 2.37356 33.3808 2.67183 33.3928 3.04025L33.4595 5.06968C33.4988 6.26757 33.0233 7.42706 32.1547 8.25309L13.596 24.9271C12.4843 25.926 11.9558 27.4483 12.2101 28.9206L12.5935 31.1401L11.2043 32.528L9.16342 27.2322C9.04699 26.9299 8.80782 26.6909 8.50522 26.5744ZM25.6192 47.238V53.0284C20.8669 51.07 16.7884 47.4039 14.4006 42.8457L17.1852 40.0642C17.3029 39.946 17.4604 39.881 17.6285 39.881H23.8469C24.6283 39.881 25.3628 39.577 25.9151 39.0248L27.0258 37.9152C27.2678 37.6733 27.6747 37.6733 27.9167 37.9152L30.3818 40.3786C30.628 40.6754 30.628 40.9722 30.3819 41.269L26.4761 45.1711C25.9234 45.7231 25.6192 46.4572 25.6192 47.238ZM27.9134 53.8298V47.238C27.9134 47.0696 27.979 46.9113 28.0981 46.7923L32.0039 42.8903C33.1098 41.7852 33.0942 39.847 32.004 38.7574L29.5389 36.2941C28.4119 35.1677 26.5306 35.1676 25.4035 36.2941L24.2929 37.4037C24.1737 37.5228 24.0153 37.5884 23.8468 37.5884H17.6284C16.8459 37.5884 16.1111 37.893 15.5615 38.4445L13.3758 40.6278C12.6662 38.839 12.187 36.9541 11.9613 35.014L14.636 32.3415C14.8997 32.0781 15.0189 31.7031 14.9554 31.336L14.4711 28.53C14.3505 27.8308 14.6016 27.1066 15.1296 26.6321L22.2572 20.2284L29.581 30.9964C29.9787 31.5809 30.8399 31.6635 31.3409 31.1627L34.1297 28.3757C34.4393 28.0664 34.5457 27.6078 34.4039 27.1938L29.7194 13.5242L33.5089 10.1195C33.7108 10.114 33.9164 10.1111 34.1238 10.1111C38.926 10.1111 43.6259 11.6752 47.459 14.5313H44.2457C42.1737 14.5313 40.4878 16.2165 40.4878 18.2878V19.6702C40.4878 21.7409 42.1736 23.4255 44.2457 23.4255C45.42 23.4255 46.3989 24.4037 46.3989 25.5771V29.9618C46.3989 31.2338 45.9035 32.4294 45.004 33.3284L38.5343 39.7936C37.7155 40.6118 37.2647 41.6992 37.2647 42.8555V46.3047C37.2647 47.461 37.7157 48.5485 38.5342 49.3665L42.3158 53.1463C39.7238 54.1679 36.9426 54.707 34.124 54.707C32.0004 54.7074 29.9125 54.4074 27.9134 53.8298Z" fill="#147E93"/>
<path d="M58.7095 32.1854C58.5855 31.5745 57.9736 31.1623 57.3605 31.2856C56.748 31.4086 56.3366 32.0205 56.46 32.6336C56.5831 33.245 57.1946 33.6559 57.8079 33.5335C58.4181 33.4116 58.8336 32.7972 58.7095 32.1854Z" fill="#147E93"/>
</svg>
