<svg width="53" height="49" viewBox="0 0 53 49" fill="none" xmlns="http://www.w3.org/2000/svg">
<path d="M26.3999 24.9626L21.3164 23.4211L20.7634 22.3151C20.5911 21.9703 20.197 21.8108 19.8405 21.9212V21.7288C21.9456 20.2081 23.3742 17.8061 23.5768 15.0674C24.5633 14.7917 25.3395 13.9896 25.5021 12.9896C25.6046 12.3589 25.4707 11.7379 25.1641 11.2218C26.1454 10.708 26.817 9.68013 26.817 8.49788C26.817 7.42567 26.2488 6.44869 25.3653 5.8983C25.4141 5.69789 25.439 5.49138 25.439 5.28249C25.439 3.84124 24.2665 2.66872 22.8253 2.66872C22.4795 2.66872 22.1495 2.73683 21.8472 2.85929C20.3511 1.50014 18.4355 0.755859 16.3944 0.755859H12.7196C10.6875 0.755859 8.76382 1.50138 7.26647 2.85919C6.96421 2.73673 6.6343 2.66872 6.28867 2.66872C4.84742 2.66872 3.6749 3.84124 3.6749 5.28249C3.6749 5.49148 3.69985 5.698 3.7486 5.8983C2.865 6.44869 2.2969 7.42567 2.2969 8.49788C2.2969 9.67951 2.96768 10.7068 3.94797 11.2209C3.64209 11.7352 3.50886 12.356 3.61186 12.9896C3.77438 13.9896 4.55064 14.7917 5.53714 15.0674C5.73931 17.8024 7.16441 20.2013 9.26473 21.7224V21.9183C8.9105 21.8132 8.52139 21.9731 8.35038 22.315L7.79782 23.42L2.5175 25.0041C1.01166 25.456 0 26.8158 0 28.3879V47.4673C0 47.8961 0.347605 48.2437 0.776366 48.2437C1.20513 48.2437 1.55273 47.8961 1.55273 47.4673V28.3879C1.55273 28.3309 1.55532 28.2746 1.55998 28.2187L4.66327 31.322C5.21076 31.8695 5.5122 32.5973 5.5122 33.3715V47.4672C5.5122 47.896 5.8598 48.2436 6.28856 48.2436C6.71732 48.2436 7.06493 47.896 7.06493 47.4672V33.3715C7.06493 32.1825 6.6019 31.0648 5.76115 30.224L2.34224 26.8051C2.52526 26.6685 2.73364 26.5605 2.96365 26.4916L6.46154 25.4422C6.73544 26.2121 8.76952 31.4992 14.1262 35.0703C14.2567 35.1572 14.4068 35.2007 14.5569 35.2007C14.707 35.2007 14.8571 35.1572 14.9875 35.0703C20.5236 31.3796 22.4985 25.9238 22.661 25.4514L25.9494 26.4486C26.0245 26.4714 26.1003 26.4822 26.1749 26.4822C26.5079 26.4822 26.8159 26.2662 26.9175 25.9309C27.042 25.5206 26.8102 25.0872 26.3999 24.9626ZM20.0712 24.4028L17.4476 27.6824C17.4116 27.7274 17.3683 27.7366 17.3342 27.7358C17.3024 27.7353 17.2572 27.725 17.2226 27.6789L15.7362 25.697L19.7219 23.7041L20.0712 24.4028ZM14.5569 24.5505L10.8174 22.6808V22.6288C11.9577 23.1486 13.224 23.4388 14.5569 23.4388C15.8864 23.4388 17.1496 23.1499 18.2878 22.6324V22.6851L14.5569 24.5505ZM22.8252 4.22156C23.4102 4.22156 23.8862 4.69752 23.8862 5.28259C23.8862 5.48983 23.8251 5.69158 23.7097 5.866C23.5725 6.07314 23.5428 6.33337 23.6298 6.56608C23.7167 6.79878 23.9097 6.97579 24.1489 7.04245C24.8056 7.22526 25.2643 7.82379 25.2643 8.49798C25.2643 9.33636 24.5822 10.0184 23.7439 10.0184C22.9055 10.0184 22.2234 9.33636 22.2234 8.49798C22.2234 8.12233 22.3678 7.75847 22.63 7.4736C22.7981 7.29099 22.8687 7.03904 22.8201 6.79567C22.7714 6.55231 22.6093 6.34683 22.3841 6.2429C22.0075 6.0691 21.7641 5.6922 21.7641 5.28259C21.7641 4.69752 22.2401 4.22156 22.8252 4.22156ZM3.84943 8.49798C3.84953 7.82389 4.30811 7.22537 4.96481 7.04256C5.20413 6.97589 5.39709 6.79888 5.48394 6.56618C5.57079 6.33348 5.54108 6.07324 5.40402 5.86611C5.2886 5.69168 5.22753 5.48993 5.22753 5.28269C5.22753 4.69762 5.70349 4.22166 6.28856 4.22166C6.87363 4.22166 7.3496 4.69752 7.3496 5.28259C7.3496 5.6922 7.10623 6.0692 6.72964 6.2429C6.50429 6.34683 6.34218 6.55231 6.29363 6.79567C6.24498 7.03904 6.31558 7.29099 6.48369 7.4736C6.74589 7.75847 6.8903 8.12233 6.8903 8.49798C6.8903 9.33636 6.20823 10.0184 5.36986 10.0184C4.53149 10.0184 3.84943 9.33636 3.84943 8.49798ZM7.06493 14.3941C7.06493 13.9654 6.71732 13.6178 6.28856 13.6178C5.71757 13.6178 5.22556 13.2406 5.1443 12.7406C5.05166 12.1708 5.4003 11.6467 5.95514 11.5217C5.98516 11.5149 6.01404 11.506 6.0424 11.4961C7.4144 11.1885 8.44293 9.96149 8.44293 8.49809C8.44293 8.02326 8.33154 7.55962 8.12161 7.13945C8.61145 6.65614 8.90233 5.9895 8.90233 5.28259C8.90233 4.75849 8.74664 4.27021 8.47998 3.8606C9.66492 2.85753 11.1521 2.30869 12.7195 2.30869H16.3943C17.9685 2.30869 19.4513 2.85484 20.635 3.85873C20.3675 4.26876 20.2114 4.75766 20.2114 5.28259C20.2114 5.9895 20.5023 6.65614 20.9921 7.13945C20.7821 7.55962 20.6708 8.02326 20.6708 8.49809C20.6708 9.99099 21.7411 11.2381 23.1546 11.5139C23.1785 11.5236 23.2029 11.5324 23.228 11.5399C23.672 11.6725 24.0692 12.1274 23.9695 12.7407C23.8883 13.2408 23.3962 13.6179 22.8253 13.6179C22.3965 13.6179 22.0489 13.9655 22.0489 14.3942C22.0489 18.5253 18.6881 21.8862 14.557 21.8862C10.4259 21.8862 7.06493 18.5252 7.06493 14.3941ZM9.1459 24.1959L9.39185 23.7041L13.3776 25.697L11.8912 27.6789C11.8567 27.725 11.8114 27.7353 11.7796 27.7358C11.7457 27.7385 11.7022 27.7274 11.6662 27.6824L9.06329 24.4288C9.10294 24.3563 9.13078 24.2778 9.1459 24.1959ZM14.5569 33.4819C11.0812 31.0118 9.2106 27.7789 8.4156 26.1047L10.4537 28.6523C10.778 29.0577 11.2589 29.2885 11.7765 29.2885C11.7856 29.2885 11.7948 29.2884 11.8039 29.2883C12.3319 29.2801 12.8165 29.033 13.1333 28.6105L13.7804 27.7477V30.9308C13.7804 31.3596 14.128 31.7072 14.5568 31.7072C14.9855 31.7072 15.3331 31.3596 15.3331 30.9308V27.7477L15.9802 28.6105C16.2971 29.0331 16.7816 29.2801 17.3096 29.2883C17.3188 29.2884 17.3279 29.2885 17.337 29.2885C17.8547 29.2885 18.3355 29.0577 18.6598 28.6523L20.7041 26.0968C19.9155 27.7664 18.0505 31.0003 14.5569 33.4819Z" fill="#147E93"/>
<path d="M16.8833 16.5473C16.5503 16.2772 16.0614 16.3282 15.7914 16.6612C15.4611 17.0684 15.0228 17.2927 14.5569 17.2927C14.0911 17.2927 13.6527 17.0684 13.3225 16.6612C13.0526 16.3282 12.5635 16.2773 12.2305 16.5473C11.8975 16.8174 11.8466 17.3063 12.1167 17.6393C12.7383 18.4058 13.6278 18.8453 14.557 18.8453C15.4863 18.8453 16.3755 18.4057 16.9972 17.6393C17.2673 17.3063 17.2164 16.8174 16.8833 16.5473Z" fill="#147E93"/>
<path d="M10.8821 11.7803C10.4533 11.7803 10.1057 12.128 10.1057 12.5567V13.4754C10.1057 13.9042 10.4533 14.2518 10.8821 14.2518C11.3108 14.2518 11.6584 13.9042 11.6584 13.4754V12.5567C11.6584 12.128 11.3108 11.7803 10.8821 11.7803Z" fill="#147E93"/>
<path d="M18.2317 11.7803C17.8029 11.7803 17.4553 12.128 17.4553 12.5567V13.4754C17.4553 13.9042 17.8029 14.2518 18.2317 14.2518C18.6604 14.2518 19.0081 13.9042 19.0081 13.4754V12.5567C19.0081 12.128 18.6604 11.7803 18.2317 11.7803Z" fill="#147E93"/>
<path d="M26.1302 28.5444C25.827 28.2412 25.3354 28.2412 25.0324 28.5444L23.3526 30.2241C22.5119 31.0649 22.0488 32.1826 22.0488 33.3716V47.4673C22.0488 47.8961 22.3964 48.2437 22.8252 48.2437C23.254 48.2437 23.6016 47.8961 23.6016 47.4673V33.3716C23.6016 32.5974 23.9031 31.8695 24.4505 31.3221L26.1302 29.6424C26.4334 29.3392 26.4334 28.8476 26.1302 28.5444Z" fill="#147E93"/>
<path d="M41.6883 22.9782C41.3553 22.7081 40.8663 22.7591 40.5963 23.0921C40.2661 23.4993 39.8277 23.7236 39.3619 23.7236C38.8961 23.7236 38.4577 23.4993 38.1274 23.0921C37.8575 22.7591 37.3685 22.7082 37.0355 22.9782C36.7025 23.2483 36.6515 23.7372 36.9216 24.0702C37.5431 24.8366 38.4325 25.2762 39.3618 25.2762C40.291 25.2762 41.1804 24.8366 41.8021 24.0702C42.0722 23.7372 42.0213 23.2483 41.6883 22.9782Z" fill="#147E93"/>
<path d="M31.0935 36.5852C30.6647 36.5852 30.3171 36.9328 30.3171 37.3616V47.4673C30.3171 47.8961 30.6647 48.2437 31.0935 48.2437C31.5223 48.2437 31.8699 47.8961 31.8699 47.4673V37.3616C31.8699 36.9328 31.5223 36.5852 31.0935 36.5852Z" fill="#147E93"/>
<path d="M47.63 36.5852C47.2012 36.5852 46.8536 36.9328 46.8536 37.3616V47.4673C46.8536 47.8961 47.2012 48.2437 47.63 48.2437C48.0588 48.2437 48.4064 47.8961 48.4064 47.4673V37.3616C48.4064 36.9328 48.0588 36.5852 47.63 36.5852Z" fill="#147E93"/>
<path d="M50.4046 31.2797C50.8896 30.6647 51.1625 29.8979 51.1625 29.0933C51.1625 27.785 50.445 26.6141 49.3221 26.005C49.3242 25.9626 49.3252 25.9202 49.3252 25.8779C49.3252 24.8687 48.8366 23.945 48.039 23.3765C48.0918 23.1974 48.1408 23.017 48.1822 22.8344C48.2829 22.3911 48.347 21.9226 48.3772 21.4091C49.5992 19.6061 50.2439 17.5027 50.2439 15.3128C50.2439 9.31243 45.3622 4.43075 39.3618 4.43075C33.3614 4.43075 28.4797 9.31243 28.4797 15.3128C28.4797 17.5029 29.1245 19.6063 30.3465 21.4092C30.3767 21.923 30.4408 22.3914 30.5413 22.8343C30.5827 23.0168 30.6318 23.1972 30.6846 23.3763C29.887 23.9449 29.3984 24.8686 29.3984 25.8779C29.3984 25.9202 29.3995 25.9626 29.4014 26.005C28.2785 26.6141 27.561 27.7851 27.561 29.0933C27.561 29.8979 27.8341 30.6647 28.319 31.2797C26.719 32.2398 25.7236 33.9642 25.7236 35.878V47.4677C25.7236 47.8965 26.0712 48.2441 26.5 48.2441C26.9288 48.2441 27.2764 47.8965 27.2764 47.4677V35.878C27.2764 34.3081 28.2183 32.9169 29.6759 32.3338L29.8244 32.2744C32.1207 35.3778 35.6582 37.2193 39.3619 37.2193C43.1162 37.2193 46.5762 35.4203 48.8987 32.2742L49.0478 32.3338C50.5055 32.9169 51.4473 34.3081 51.4473 35.878V47.4673C51.4473 47.896 51.7949 48.2436 52.2237 48.2436C52.6524 48.2436 53 47.896 53 47.4673V35.878C52.9999 33.9642 52.0045 32.2398 50.4046 31.2797ZM30.0325 15.3128C30.0325 10.1686 34.2176 5.98348 39.3618 5.98348C44.506 5.98348 48.6911 10.1686 48.6911 15.3128C48.6911 16.6213 48.4223 17.8934 47.9051 19.0675C46.7865 16.6605 44.3003 15.986 41.8817 15.3315C39.9264 14.8025 37.9045 14.2553 36.1719 12.8692C35.9887 12.7227 35.7491 12.6667 35.5203 12.7172C35.2914 12.7675 35.0974 12.9185 34.9925 13.1282C34.9844 13.1443 34.1711 14.7434 32.5836 15.5371C32.2001 15.7288 32.0446 16.1952 32.2364 16.5787C32.4281 16.9622 32.8944 17.1178 33.278 16.9259C34.5416 16.294 35.4123 15.2908 35.9031 14.5962C37.7115 15.8116 39.6986 16.3494 41.4761 16.8303C42.0595 16.9882 42.5964 17.1379 43.0872 17.2939C43.0702 17.2936 43.0535 17.2926 43.0365 17.2926C42.0904 17.2926 41.2601 17.7979 40.8013 18.5528C40.3721 18.3319 39.8795 18.2113 39.3618 18.2113C38.844 18.2113 38.3513 18.3319 37.9222 18.5528C37.4633 17.798 36.633 17.2926 35.687 17.2926C34.2457 17.2926 33.0732 18.4652 33.0732 19.9064C33.0732 21.3477 34.2457 22.5202 35.687 22.5202C37.0302 22.5202 38.1396 21.5016 38.2843 20.1962C38.5376 19.9267 38.9337 19.7641 39.3618 19.7641C39.7898 19.7641 40.1859 19.9267 40.4392 20.1962C40.5839 21.5016 41.6933 22.5202 43.0365 22.5202C44.4777 22.5202 45.6502 21.3477 45.6502 19.9064C45.6502 19.1514 45.3281 18.4704 44.8145 17.9929C45.9248 18.598 46.6077 19.4427 46.8608 20.9345C46.8477 20.9866 46.8394 21.0406 46.8374 21.0964C46.8188 21.6141 46.7633 22.0702 46.6679 22.4909C46.2984 24.1195 45.3748 25.5983 44.0675 26.6551C42.7223 27.7424 41.0952 28.3171 39.3617 28.3171C37.6282 28.3171 36.001 27.7424 34.6559 26.6551C33.3486 25.5984 32.4251 24.1195 32.0555 22.4909C31.9602 22.071 31.9047 21.6153 31.8861 21.0978C31.8787 20.8922 31.7918 20.7076 31.6556 20.5733C30.5932 19.0204 30.0325 17.2045 30.0325 15.3128ZM44.0976 19.9063C44.0976 20.4914 43.6217 20.9673 43.0366 20.9673C42.4515 20.9673 41.9756 20.4914 41.9756 19.9063C41.9756 19.3212 42.4515 18.8453 43.0366 18.8453C43.6217 18.8453 44.0976 19.3212 44.0976 19.9063ZM36.748 19.9063C36.748 20.4914 36.2721 20.9673 35.687 20.9673C35.1019 20.9673 34.626 20.4914 34.626 19.9063C34.626 19.3212 35.1019 18.8453 35.687 18.8453C36.2721 18.8453 36.748 19.3212 36.748 19.9063ZM43.8252 30.2423C42.6181 31.3629 41.0391 31.9916 39.3617 31.9916C37.6861 31.9916 36.1062 31.3624 34.8987 30.2421C35.3836 30.0299 35.7851 29.6816 36.0607 29.2432C37.1064 29.6528 38.2271 29.8697 39.3618 29.8697C40.4965 29.8697 41.6172 29.6528 42.6629 29.2432C42.9386 29.6818 43.3403 30.0301 43.8252 30.2423ZM29.8165 30.6052C29.3734 30.2307 29.1139 29.68 29.1139 29.0932C29.1138 28.2347 29.6705 27.4813 30.499 27.2182C30.8957 27.0923 31.1224 26.6761 31.0133 26.2746C30.9708 26.1188 30.9512 25.9927 30.9512 25.8779C30.9512 25.5179 31.0774 25.1804 31.2955 24.9144C31.8709 26.0457 32.6825 27.0563 33.6798 27.8625C33.9885 28.112 34.3129 28.3394 34.65 28.5447C34.5409 28.6703 34.4031 28.7706 34.2437 28.8344L29.8165 30.6052ZM39.3618 35.6665C36.2325 35.6665 33.3407 34.2209 31.3215 31.6756L33.3359 30.8699C34.877 32.5755 37.0465 33.5445 39.3619 33.5445C41.6795 33.5445 43.8467 32.5758 45.3876 30.8698L47.4028 31.6759C45.3827 34.2204 42.486 35.6665 39.3618 35.6665ZM48.9071 30.6053L44.4798 28.8344C44.3204 28.7706 44.1827 28.6703 44.0736 28.5447C44.4105 28.3393 44.7351 28.112 45.0438 27.8625C46.0411 27.0563 46.8527 26.0456 47.4281 24.9144C47.6461 25.1804 47.7724 25.5179 47.7724 25.8779C47.7724 25.9927 47.7528 26.1188 47.7103 26.2746C47.6011 26.6761 47.8279 27.0923 48.2246 27.2182C49.0531 27.4813 49.6098 28.2347 49.6098 29.0933C49.6098 29.6801 49.3502 30.2308 48.9071 30.6053Z" fill="#147E93"/>
</svg>
